<svg version="1.2" xmlns="http://www.w3.org/2000/svg" viewBox="0 0 1189 1064" width="1189" height="1064"><style>.a{fill:#80b7b3}</style><g style="opacity:.5"><path class="a" d="m187.6 1003.7l-2.8-2.8 1000.6-1000.6 2.8 2.8-1000.6 1000.6m488.6-512.7c5.9-5.8 15.4-5.8 21.3 0 5.8 5.9 5.8 15.4 0 21.3-5.9 5.8-15.4 5.8-21.3 0-5.8-5.9-5.8-15.4 0-21.3zm-673.6 572.7l-2.8-2.8 1000.6-1000.6 2.8 2.8-1000.6 1000.6m775.6-801.7c5.9-5.8 15.4-5.8 21.3 0 5.8 5.9 5.8 15.4 0 21.3-5.9 5.8-15.4 5.8-21.3 0-5.8-5.9-5.8-15.4 0-21.3z"/></g></svg>